# xmcd
#
# Track frame offsets:
#	150
#	14618
#	30982
#	47736
#	63788
#	81940
#	101775
#	117212
#	136549
#	153117
#	167723
#	181963
#	200328
#	218684
#	241960
#	262191
#	279623
#
# Disc length: 3975 seconds
#
# Revision: 0
# Processed by: cddbd v1.5.2PL0 Copyright (c) Steve Scherf et al.
# Submitted via: audiograbber 1.83.01
#
DISCID=e20f8511
DTITLE=Chartbuster - 2010 Country Hits Disk 1
DYEAR=2010
DGENRE=Country
TTITLE0=Randy Houser - Whistlin' Dixie
TTITLE1=Jerrod Niemann - Lover, Lover
TTITLE2=Lady Antebellum - American Honey
TTITLE3=Jason Aldean - Big Green Tractor
TTITLE4=Montgomery Gentry - Oughta Be More Songs Like That
TTITLE5=Jamey Johnson - My Way To You
TTITLE6=Gretchen Wilson - Work Hard, Play Harder
TTITLE7=Craig Morgan - This Ain't Nothin'
TTITLE8=Allan Jackson - It's Just That Way
TTITLE9=Joe Nichols - Gimmie That Girl
TTITLE10=Little Big Town - Little White Church
TTITLE11=Trace Adkins - Ala-Freakin-Bama
TTITLE12=Zac Brown Band - Highway 20 Ride
TTITLE13=David Nail - Turning Home
TTITLE14=Lee Ann Womack - There Is A God
TTITLE15=Brad Paisley - American Saturday Night
TTITLE16=Gary Allan - Today
EXTD=
EXTT0=
EXTT1=
EXTT2=
EXTT3=
EXTT4=
EXTT5=
EXTT6=
EXTT7=
EXTT8=
EXTT9=
EXTT10=
EXTT11=
EXTT12=
EXTT13=
EXTT14=
EXTT15=
EXTT16=
PLAYORDER=
